<svg version="1.1" id="Layer_1" xmlns="http://www.w3.org/2000/svg" xmlns:xlink="http://www.w3.org/1999/xlink" x="0px" y="0px"
	 width="100%" viewBox="0 0 1600 1200" enable-background="new 0 0 1600 1200" xml:space="preserve">
<path fill="#000000" opacity="1.000000" stroke="none" 
	d="
M945.000000,1201.000000 
	C630.000061,1201.000000 315.500122,1201.000000 1.000127,1201.000000 
	C1.000084,801.000122 1.000084,401.000244 1.000042,1.000288 
	C534.333130,1.000192 1067.666260,1.000192 1600.999512,1.000096 
	C1600.999756,400.999725 1600.999756,800.999451 1600.999878,1200.999512 
	C1382.500000,1201.000000 1164.000000,1201.000000 945.000000,1201.000000 
M993.569885,134.007645 
	C971.860962,127.183090 950.424072,119.280128 928.395142,113.724419 
	C842.258728,92.000778 755.915222,92.601837 669.892578,114.380135 
	C586.175659,135.574692 511.850159,174.909409 447.780701,232.946915 
	C392.843567,282.711853 350.352356,341.574646 321.734497,410.100342 
	C286.970856,493.342133 275.087341,579.730896 287.882111,669.171021 
	C302.331848,770.179626 344.244659,858.480896 412.702332,934.000671 
	C464.923309,991.608765 527.313354,1035.099243 599.351929,1064.359863 
	C681.501953,1097.727661 766.805359,1110.297363 855.128479,1101.190674 
	C929.422424,1093.530640 999.111694,1071.392700 1064.056274,1034.411011 
	C1117.697632,1003.865906 1164.233398,964.766357 1203.770386,917.469604 
	C1249.306396,862.996521 1281.751221,801.455688 1300.846924,733.042725 
	C1320.152710,663.876038 1324.300171,593.740417 1312.719849,522.824341 
	C1303.029541,463.482117 1283.218506,407.683807 1253.223022,355.511078 
	C1221.838867,300.923309 1181.349487,254.138565 1132.591064,214.450272 
	C1090.757568,180.398865 1044.455322,153.978149 993.569885,134.007645 
z"/>
<path fill="#F1F1F1" opacity="1.000000" stroke="none" 
	d="
M993.948669,134.093872 
	C1044.455322,153.978149 1090.757568,180.398865 1132.591064,214.450272 
	C1181.349487,254.138565 1221.838867,300.923309 1253.223022,355.511078 
	C1283.218506,407.683807 1303.029541,463.482117 1312.719849,522.824341 
	C1324.300171,593.740417 1320.152710,663.876038 1300.846924,733.042725 
	C1281.751221,801.455688 1249.306396,862.996521 1203.770386,917.469604 
	C1164.233398,964.766357 1117.697632,1003.865906 1064.056274,1034.411011 
	C999.111694,1071.392700 929.422424,1093.530640 855.128479,1101.190674 
	C766.805359,1110.297363 681.501953,1097.727661 599.351929,1064.359863 
	C527.313354,1035.099243 464.923309,991.608765 412.702332,934.000671 
	C344.244659,858.480896 302.331848,770.179626 287.882111,669.171021 
	C275.087341,579.730896 286.970856,493.342133 321.734497,410.100342 
	C350.352356,341.574646 392.843567,282.711853 447.780701,232.946915 
	C511.850159,174.909409 586.175659,135.574692 669.892578,114.380135 
	C755.915222,92.601837 842.258728,92.000778 928.395142,113.724419 
	C950.424072,119.280128 971.860962,127.183090 993.948669,134.093872 
M1260.716431,822.002014 
	C1307.615723,728.484497 1324.450317,629.934937 1307.983643,526.506287 
	C1288.236694,402.474396 1229.178101,299.930359 1131.922119,220.990723 
	C1012.669800,124.197403 875.437683,87.706848 723.559265,109.047211 
	C618.914673,123.750771 527.298523,167.672699 449.029694,238.824921 
	C326.869568,349.877686 268.988068,512.254883 293.944763,675.385742 
	C308.651093,771.514648 349.046356,856.044556 414.323914,927.925354 
	C508.180603,1031.276367 625.934692,1086.846191 764.732971,1097.636597 
	C837.261108,1103.275024 908.165710,1093.563354 976.585144,1068.765259 
	C1102.561401,1023.105957 1197.775024,941.596130 1260.716431,822.002014 
z"/>
<path fill="#000000" opacity="1.000000" stroke="none" 
	d="
M1260.527100,822.319702 
	C1197.775024,941.596130 1102.561401,1023.105957 976.585144,1068.765259 
	C908.165710,1093.563354 837.261108,1103.275024 764.732971,1097.636597 
	C625.934692,1086.846191 508.180603,1031.276367 414.323914,927.925354 
	C349.046356,856.044556 308.651093,771.514648 293.944763,675.385742 
	C268.988068,512.254883 326.869568,349.877686 449.029694,238.824921 
	C527.298523,167.672699 618.914673,123.750771 723.559265,109.047211 
	C875.437683,87.706848 1012.669800,124.197403 1131.922119,220.990723 
	C1229.178101,299.930359 1288.236694,402.474396 1307.983643,526.506287 
	C1324.450317,629.934937 1307.615723,728.484497 1260.527100,822.319702 
M777.500000,811.009583 
	C819.828430,811.009583 862.157837,810.856018 904.484558,811.126770 
	C914.053284,811.187927 921.671631,807.461792 928.267090,801.402039 
	C944.458435,786.525513 947.424866,764.319214 934.934387,744.442871 
	C910.465332,705.505005 885.776672,666.705017 861.185852,627.843567 
	C850.732971,611.324768 840.297302,594.794983 829.253418,577.320190 
	C830.825623,576.168335 832.473938,575.257935 833.754517,573.979187 
	C874.558777,533.236572 915.296692,492.427368 956.154907,451.739044 
	C959.751648,448.157196 960.976318,445.005585 958.028809,440.428467 
	C947.330872,423.815369 936.801880,407.093262 926.227417,390.400726 
	C907.562744,360.937103 888.662781,331.618317 870.348938,301.938080 
	C859.622803,284.554749 844.780579,275.832184 824.298889,276.139832 
	C793.156372,276.607574 762.009033,276.826080 730.862915,276.961517 
	C700.365662,277.094147 669.867371,276.987457 639.369568,276.998505 
	C637.707520,276.999115 635.954285,276.798859 634.401672,277.243958 
	C630.778992,278.282440 629.225647,280.781128 630.545654,284.490814 
	C631.094482,286.033173 632.044861,287.451813 632.930115,288.852448 
	C645.884949,309.349548 658.984619,329.756958 671.733704,350.381042 
	C674.591919,355.004730 677.770081,357.143524 683.328308,357.104767 
	C723.989685,356.821198 764.652893,356.826233 805.315063,356.628082 
	C808.439026,356.612823 810.256836,357.315735 812.013977,360.245453 
	C818.499634,371.059387 825.480591,381.575348 832.221191,392.237518 
	C841.160889,406.378204 850.049805,420.550934 859.035095,434.828339 
	C858.070190,435.918640 857.245972,436.955139 856.315857,437.885681 
	C821.680176,472.536072 787.345581,507.495941 752.245117,541.669189 
	C737.164001,556.351929 734.704834,579.107666 746.256104,597.080566 
	C770.400330,634.647278 794.183105,672.446289 818.094543,710.162354 
	C822.390991,716.939209 826.592529,723.776123 831.090454,730.990417 
	C828.617615,730.990417 826.800415,730.990417 824.983154,730.990417 
	C795.818542,730.990417 766.653503,730.915588 737.490234,731.114258 
	C734.783752,731.132629 731.456604,732.183350 729.493469,733.950073 
	C718.243835,744.073914 707.365723,754.609009 696.266296,764.901917 
	C690.174927,770.550720 683.823914,775.919128 677.722168,781.557129 
	C670.879333,787.880066 664.037903,794.220642 657.542480,800.890991 
	C656.111877,802.360046 655.106323,805.659424 655.785889,807.367737 
	C656.463257,809.070496 659.430359,809.998718 661.540833,810.934387 
	C662.515930,811.366821 663.841370,811.009521 665.007935,811.009521 
	C702.171936,811.009583 739.335999,811.009583 777.500000,811.009583 
M462.992737,888.485229 
	C462.993256,891.817871 462.568451,895.226318 463.144104,898.456421 
	C463.526550,900.602478 464.903473,903.343201 466.645996,904.236938 
	C468.107178,904.986450 471.275421,904.077881 472.766724,902.815369 
	C479.979065,896.709717 486.926544,890.286804 493.882172,883.883240 
	C507.318115,871.513489 520.670166,859.052612 534.105469,846.682190 
	C550.222839,831.842224 566.408142,817.076050 582.531372,802.242554 
	C595.726868,790.102661 608.879395,777.916077 622.042114,765.740479 
	C639.959045,749.167175 657.902832,732.622681 675.766907,715.992493 
	C687.442749,705.123047 698.947449,694.069702 710.627808,683.205200 
	C716.454956,677.785034 722.575012,672.680603 728.433960,667.293579 
	C734.794495,661.445251 740.999084,655.427429 747.285034,649.497803 
	C750.025574,646.912537 751.076904,643.891235 748.983093,640.550903 
	C737.002502,621.437683 725.000916,602.336853 712.846191,583.334229 
	C710.061157,578.980286 705.751953,578.833984 701.792358,582.422974 
	C690.974304,592.228333 680.116821,601.991028 669.367737,611.871521 
	C651.765198,628.051758 634.234314,644.310059 616.676453,660.538879 
	C603.386780,672.822632 590.105713,685.115784 576.814270,697.397644 
	C559.377258,713.510193 541.895630,729.574707 524.506531,745.738708 
	C512.947021,756.483826 501.566528,767.421326 490.005768,778.165039 
	C484.299927,783.467590 478.438354,788.609192 472.517853,793.672302 
	C466.233093,799.046997 462.414429,804.764465 462.719513,814.020630 
	C463.525940,838.486877 462.992737,862.997253 462.992737,888.485229 
M1042.714355,583.326477 
	C1043.108032,582.789307 1043.531860,582.271545 1043.890991,581.712219 
	C1067.296265,545.260925 1090.707275,508.813324 1114.090576,472.347931 
	C1121.884521,460.193542 1129.819092,448.121063 1137.271362,435.759186 
	C1140.970825,429.622620 1138.492065,426.009918 1131.217773,426.000061 
	C1105.718628,425.965424 1080.219116,426.046417 1054.720459,425.924286 
	C1050.755127,425.905304 1047.992188,427.437836 1045.957642,430.571136 
	C1041.981445,436.694702 1038.101318,442.880676 1034.154663,449.023529 
	C1022.330261,467.427368 1010.492859,485.822876 998.354004,504.698395 
	C991.737488,494.352814 985.279419,484.517517 979.104431,474.507599 
	C974.958313,467.786591 971.938110,467.194641 966.395874,472.833466 
	C950.872009,488.627716 935.445129,504.517517 919.873718,520.264587 
	C916.565735,523.609802 916.646851,526.406677 919.167053,530.327820 
	C933.252075,552.241943 947.082825,574.319641 960.982727,596.352600 
	C971.145569,612.461670 985.283142,621.099976 1004.727478,618.921814 
	C1013.536804,617.934998 1021.684204,614.190186 1027.192383,607.274109 
	C1032.939941,600.057739 1037.320068,591.752380 1042.714355,583.326477 
z"/>
<path fill="#FAFAFA" opacity="1.000000" stroke="none" 
	d="
M777.000000,811.009583 
	C739.335999,811.009583 702.171936,811.009583 665.007935,811.009521 
	C663.841370,811.009521 662.515930,811.366821 661.540833,810.934387 
	C659.430359,809.998718 656.463257,809.070496 655.785889,807.367737 
	C655.106323,805.659424 656.111877,802.360046 657.542480,800.890991 
	C664.037903,794.220642 670.879333,787.880066 677.722168,781.557129 
	C683.823914,775.919128 690.174927,770.550720 696.266296,764.901917 
	C707.365723,754.609009 718.243835,744.073914 729.493469,733.950073 
	C731.456604,732.183350 734.783752,731.132629 737.490234,731.114258 
	C766.653503,730.915588 795.818542,730.990417 824.983154,730.990417 
	C826.800415,730.990417 828.617615,730.990417 831.090454,730.990417 
	C826.592529,723.776123 822.390991,716.939209 818.094543,710.162354 
	C794.183105,672.446289 770.400330,634.647278 746.256104,597.080566 
	C734.704834,579.107666 737.164001,556.351929 752.245117,541.669189 
	C787.345581,507.495941 821.680176,472.536072 856.315857,437.885681 
	C857.245972,436.955139 858.070190,435.918640 859.035095,434.828339 
	C850.049805,420.550934 841.160889,406.378204 832.221191,392.237518 
	C825.480591,381.575348 818.499634,371.059387 812.013977,360.245453 
	C810.256836,357.315735 808.439026,356.612823 805.315063,356.628082 
	C764.652893,356.826233 723.989685,356.821198 683.328308,357.104767 
	C677.770081,357.143524 674.591919,355.004730 671.733704,350.381042 
	C658.984619,329.756958 645.884949,309.349548 632.930115,288.852448 
	C632.044861,287.451813 631.094482,286.033173 630.545654,284.490814 
	C629.225647,280.781128 630.778992,278.282440 634.401672,277.243958 
	C635.954285,276.798859 637.707520,276.999115 639.369568,276.998505 
	C669.867371,276.987457 700.365662,277.094147 730.862915,276.961517 
	C762.009033,276.826080 793.156372,276.607574 824.298889,276.139832 
	C844.780579,275.832184 859.622803,284.554749 870.348938,301.938080 
	C888.662781,331.618317 907.562744,360.937103 926.227417,390.400726 
	C936.801880,407.093262 947.330872,423.815369 958.028809,440.428467 
	C960.976318,445.005585 959.751648,448.157196 956.154907,451.739044 
	C915.296692,492.427368 874.558777,533.236572 833.754517,573.979187 
	C832.473938,575.257935 830.825623,576.168335 829.253418,577.320190 
	C840.297302,594.794983 850.732971,611.324768 861.185852,627.843567 
	C885.776672,666.705017 910.465332,705.505005 934.934387,744.442871 
	C947.424866,764.319214 944.458435,786.525513 928.267090,801.402039 
	C921.671631,807.461792 914.053284,811.187927 904.484558,811.126770 
	C862.157837,810.856018 819.828430,811.009583 777.000000,811.009583 
M922.993408,477.493378 
	C933.653625,466.834839 944.313904,456.176300 955.042480,445.449402 
	C946.699158,432.390717 938.525513,419.700897 930.455017,406.945862 
	C909.370728,373.623016 887.899353,340.533844 867.447815,306.826385 
	C856.416260,288.644531 841.493225,280.312286 820.332458,281.084290 
	C796.219971,281.963928 772.068115,281.894257 747.932434,281.976196 
	C710.473389,282.103363 673.013611,282.009796 635.109131,282.009796 
	C636.075562,283.867493 636.769470,285.477570 637.695923,286.940491 
	C650.546448,307.233276 663.500244,327.461243 676.225098,347.832336 
	C678.098694,350.831879 679.984680,352.096252 683.603760,352.073669 
	C721.928040,351.834259 760.264771,352.261505 798.571411,351.365021 
	C809.210144,351.116028 814.941101,354.154663 820.317627,363.346893 
	C833.886169,386.544647 848.753662,408.985809 863.260986,431.627441 
	C865.197632,434.649963 865.153687,436.633881 862.509033,439.031555 
	C859.099854,442.122284 855.979370,445.530823 852.721436,448.789337 
	C819.850159,481.666992 786.918152,514.484375 754.191040,547.504883 
	C750.844543,550.881287 747.894104,555.151245 746.191650,559.559509 
	C741.603638,571.439453 743.431213,582.903320 750.239685,593.636292 
	C774.522217,631.915894 798.778137,670.212280 823.042969,708.503113 
	C828.734741,717.484985 834.421936,726.469727 840.463745,736.009766 
	C837.959106,736.009766 836.325439,736.009705 834.691833,736.009705 
	C802.531006,736.009705 770.369995,735.975769 738.209595,736.095520 
	C736.309753,736.102600 733.955994,736.845642 732.589600,738.095093 
	C721.565308,748.175842 710.772217,758.508728 699.814087,768.662842 
	C693.856262,774.183472 687.634827,779.419739 681.676147,784.939514 
	C674.438538,791.643982 667.352539,798.512146 659.484741,805.989990 
	C661.119751,805.989990 661.721680,805.989990 662.323547,805.989990 
	C743.975464,805.990051 825.627319,805.990540 907.279236,805.985474 
	C908.274597,805.985413 909.335510,806.128357 910.255615,805.845703 
	C929.882446,799.818176 941.505249,779.718567 936.179688,761.054993 
	C933.764648,752.591309 928.642395,744.736511 923.911194,737.125854 
	C904.445190,705.812866 884.677795,674.686951 864.981689,643.517273 
	C852.020935,623.006592 839.054504,602.498840 825.935486,582.089478 
	C823.676819,578.575623 823.860107,576.445984 826.975830,573.356873 
	C858.925110,541.680115 890.682434,509.809723 922.993408,477.493378 
z"/>
<path fill="#FBFBFB" opacity="1.000000" stroke="none" 
	d="
M462.992737,887.987671 
	C462.992737,862.997253 463.525940,838.486877 462.719513,814.020630 
	C462.414429,804.764465 466.233093,799.046997 472.517853,793.672302 
	C478.438354,788.609192 484.299927,783.467590 490.005768,778.165039 
	C501.566528,767.421326 512.947021,756.483826 524.506531,745.738708 
	C541.895630,729.574707 559.377258,713.510193 576.814270,697.397644 
	C590.105713,685.115784 603.386780,672.822632 616.676453,660.538879 
	C634.234314,644.310059 651.765198,628.051758 669.367737,611.871521 
	C680.116821,601.991028 690.974304,592.228333 701.792358,582.422974 
	C705.751953,578.833984 710.061157,578.980286 712.846191,583.334229 
	C725.000916,602.336853 737.002502,621.437683 748.983093,640.550903 
	C751.076904,643.891235 750.025574,646.912537 747.285034,649.497803 
	C740.999084,655.427429 734.794495,661.445251 728.433960,667.293579 
	C722.575012,672.680603 716.454956,677.785034 710.627808,683.205200 
	C698.947449,694.069702 687.442749,705.123047 675.766907,715.992493 
	C657.902832,732.622681 639.959045,749.167175 622.042114,765.740479 
	C608.879395,777.916077 595.726868,790.102661 582.531372,802.242554 
	C566.408142,817.076050 550.222839,831.842224 534.105469,846.682190 
	C520.670166,859.052612 507.318115,871.513489 493.882172,883.883240 
	C486.926544,890.286804 479.979065,896.709717 472.766724,902.815369 
	C471.275421,904.077881 468.107178,904.986450 466.645996,904.236938 
	C464.903473,903.343201 463.526550,900.602478 463.144104,898.456421 
	C462.568451,895.226318 462.993256,891.817871 462.992737,887.987671 
M627.502380,658.006653 
	C620.406738,664.435669 613.284607,670.835815 606.222107,677.301086 
	C597.671143,685.129028 589.161194,693.001892 580.650208,700.873535 
	C562.683167,717.490784 544.693665,734.083984 526.778320,750.756836 
	C515.237305,761.497498 503.863373,772.417786 492.312012,783.147156 
	C486.863892,788.207642 481.296387,793.156250 475.559143,797.884033 
	C470.154449,802.337891 467.590820,807.261963 467.781219,814.797974 
	C468.391113,838.936768 468.007812,863.100647 468.007812,887.254883 
	C468.007812,891.344055 468.007812,895.433167 468.007812,900.310425 
	C475.823090,893.260437 483.099823,886.872803 490.177734,880.271973 
	C502.313141,868.954468 514.315857,857.494751 526.391846,846.113464 
	C531.323242,841.465759 536.249146,836.810181 541.265991,832.255554 
	C558.775574,816.359192 576.341370,800.524780 593.849854,784.627197 
	C602.066772,777.166321 610.227905,769.643311 618.368469,762.099060 
	C637.072021,744.765686 655.771362,727.427673 674.425415,710.041138 
	C685.710571,699.522766 696.862915,688.861816 708.164429,678.361267 
	C713.353882,673.539551 718.835999,669.033630 724.046448,664.233643 
	C731.206116,657.638000 738.233887,650.899109 745.243042,644.292542 
	C732.506042,624.102966 720.055359,604.367188 707.404724,584.314514 
	C695.682495,594.933716 684.479248,604.925781 673.453064,615.109497 
	C658.233521,629.166199 643.147461,643.367432 627.502380,658.006653 
z"/>
<path fill="#F8F8F8" opacity="1.000000" stroke="none" 
	d="
M1042.506104,583.624756 
	C1037.320068,591.752380 1032.939941,600.057739 1027.192383,607.274109 
	C1021.684204,614.190186 1013.536804,617.934998 1004.727478,618.921814 
	C985.283142,621.099976 971.145569,612.461670 960.982727,596.352600 
	C947.082825,574.319641 933.252075,552.241943 919.167053,530.327820 
	C916.646851,526.406677 916.565735,523.609802 919.873718,520.264587 
	C935.445129,504.517517 950.872009,488.627716 966.395874,472.833466 
	C971.938110,467.194641 974.958313,467.786591 979.104431,474.507599 
	C985.279419,484.517517 991.737488,494.352814 998.354004,504.698395 
	C1010.492859,485.822876 1022.330261,467.427368 1034.154663,449.023529 
	C1038.101318,442.880676 1041.981445,436.694702 1045.957642,430.571136 
	C1047.992188,427.437836 1050.755127,425.905304 1054.720459,425.924286 
	C1080.219116,426.046417 1105.718628,425.965424 1131.217773,426.000061 
	C1138.492065,426.009918 1140.970825,429.622620 1137.271362,435.759186 
	C1129.819092,448.121063 1121.884521,460.193542 1114.090576,472.347931 
	C1090.707275,508.813324 1067.296265,545.260925 1043.890991,581.712219 
	C1043.531860,582.271545 1043.108032,582.789307 1042.506104,583.624756 
M1053.469238,557.010132 
	C1055.646118,553.620911 1057.822144,550.231201 1059.999756,546.842529 
	C1079.659424,516.250488 1099.322754,485.660858 1118.977173,455.065521 
	C1124.009888,447.231445 1129.014893,439.379547 1134.366333,431.014191 
	C1107.240845,431.014191 1080.961670,430.956177 1054.684570,431.157074 
	C1053.094849,431.169250 1050.997437,432.900452 1050.017212,434.405548 
	C1032.822021,460.809967 1015.764343,487.303894 998.266663,514.413818 
	C989.620117,500.815704 981.135681,487.472595 972.413147,473.754944 
	C955.424866,491.196350 938.730957,508.335571 922.236694,525.269897 
	C936.512695,547.776123 950.801758,569.917786 964.677185,592.315735 
	C973.613892,606.741516 985.463623,615.600403 1003.092590,613.882996 
	C1011.543701,613.059692 1019.328674,609.801880 1024.230225,602.374817 
	C1034.001343,587.568726 1043.443115,572.545166 1053.469238,557.010132 
z"/>
<path fill="#000000" opacity="1.000000" stroke="none" 
	d="
M922.743408,477.743378 
	C890.682434,509.809723 858.925110,541.680115 826.975830,573.356873 
	C823.860107,576.445984 823.676819,578.575623 825.935486,582.089478 
	C839.054504,602.498840 852.020935,623.006592 864.981689,643.517273 
	C884.677795,674.686951 904.445190,705.812866 923.911194,737.125854 
	C928.642395,744.736511 933.764648,752.591309 936.179688,761.054993 
	C941.505249,779.718567 929.882446,799.818176 910.255615,805.845703 
	C909.335510,806.128357 908.274597,805.985413 907.279236,805.985474 
	C825.627319,805.990540 743.975464,805.990051 662.323547,805.989990 
	C661.721680,805.989990 661.119751,805.989990 659.484741,805.989990 
	C667.352539,798.512146 674.438538,791.643982 681.676147,784.939514 
	C687.634827,779.419739 693.856262,774.183472 699.814087,768.662842 
	C710.772217,758.508728 721.565308,748.175842 732.589600,738.095093 
	C733.955994,736.845642 736.309753,736.102600 738.209595,736.095520 
	C770.369995,735.975769 802.531006,736.009705 834.691833,736.009705 
	C836.325439,736.009705 837.959106,736.009766 840.463745,736.009766 
	C834.421936,726.469727 828.734741,717.484985 823.042969,708.503113 
	C798.778137,670.212280 774.522217,631.915894 750.239685,593.636292 
	C743.431213,582.903320 741.603638,571.439453 746.191650,559.559509 
	C747.894104,555.151245 750.844543,550.881287 754.191040,547.504883 
	C786.918152,514.484375 819.850159,481.666992 852.721436,448.789337 
	C855.979370,445.530823 859.099854,442.122284 862.509033,439.031555 
	C865.153687,436.633881 865.197632,434.649963 863.260986,431.627441 
	C848.753662,408.985809 833.886169,386.544647 820.317627,363.346893 
	C814.941101,354.154663 809.210144,351.116028 798.571411,351.365021 
	C760.264771,352.261505 721.928040,351.834259 683.603760,352.073669 
	C679.984680,352.096252 678.098694,350.831879 676.225098,347.832336 
	C663.500244,327.461243 650.546448,307.233276 637.695923,286.940491 
	C636.769470,285.477570 636.075562,283.867493 635.109131,282.009796 
	C673.013611,282.009796 710.473389,282.103363 747.932434,281.976196 
	C772.068115,281.894257 796.219971,281.963928 820.332458,281.084290 
	C841.493225,280.312286 856.416260,288.644531 867.447815,306.826385 
	C887.899353,340.533844 909.370728,373.623016 930.455017,406.945862 
	C938.525513,419.700897 946.699158,432.390717 955.042480,445.449402 
	C944.313904,456.176300 933.653625,466.834839 922.743408,477.743378 
z"/>
<path fill="#000000" opacity="1.000000" stroke="none" 
	d="
M627.753296,657.756714 
	C643.147461,643.367432 658.233521,629.166199 673.453064,615.109497 
	C684.479248,604.925781 695.682495,594.933716 707.404724,584.314514 
	C720.055359,604.367188 732.506042,624.102966 745.243042,644.292542 
	C738.233887,650.899109 731.206116,657.638000 724.046448,664.233643 
	C718.835999,669.033630 713.353882,673.539551 708.164429,678.361267 
	C696.862915,688.861816 685.710571,699.522766 674.425415,710.041138 
	C655.771362,727.427673 637.072021,744.765686 618.368469,762.099060 
	C610.227905,769.643311 602.066772,777.166321 593.849854,784.627197 
	C576.341370,800.524780 558.775574,816.359192 541.265991,832.255554 
	C536.249146,836.810181 531.323242,841.465759 526.391846,846.113464 
	C514.315857,857.494751 502.313141,868.954468 490.177734,880.271973 
	C483.099823,886.872803 475.823090,893.260437 468.007812,900.310425 
	C468.007812,895.433167 468.007812,891.344055 468.007812,887.254883 
	C468.007812,863.100647 468.391113,838.936768 467.781219,814.797974 
	C467.590820,807.261963 470.154449,802.337891 475.559143,797.884033 
	C481.296387,793.156250 486.863892,788.207642 492.312012,783.147156 
	C503.863373,772.417786 515.237305,761.497498 526.778320,750.756836 
	C544.693665,734.083984 562.683167,717.490784 580.650208,700.873535 
	C589.161194,693.001892 597.671143,685.129028 606.222107,677.301086 
	C613.284607,670.835815 620.406738,664.435669 627.753296,657.756714 
z"/>
<path fill="#000000" opacity="1.000000" stroke="none" 
	d="
M1053.245117,557.310791 
	C1043.443115,572.545166 1034.001343,587.568726 1024.230225,602.374817 
	C1019.328674,609.801880 1011.543701,613.059692 1003.092590,613.882996 
	C985.463623,615.600403 973.613892,606.741516 964.677185,592.315735 
	C950.801758,569.917786 936.512695,547.776123 922.236694,525.269897 
	C938.730957,508.335571 955.424866,491.196350 972.413147,473.754944 
	C981.135681,487.472595 989.620117,500.815704 998.266663,514.413818 
	C1015.764343,487.303894 1032.822021,460.809967 1050.017212,434.405548 
	C1050.997437,432.900452 1053.094849,431.169250 1054.684570,431.157074 
	C1080.961670,430.956177 1107.240845,431.014191 1134.366333,431.014191 
	C1129.014893,439.379547 1124.009888,447.231445 1118.977173,455.065521 
	C1099.322754,485.660858 1079.659424,516.250488 1059.999756,546.842529 
	C1057.822144,550.231201 1055.646118,553.620911 1053.245117,557.310791 
z"/>
</svg>